<?xml version="1.0" encoding="UTF-8"?>
<svg id="Layer_2" data-name="Layer 2" xmlns="http://www.w3.org/2000/svg" viewBox="0 0 1240.5 525.13">
  <defs>
    <style>
      .cls-1 {
        fill: none;
      }

      .cls-2 {
        fill: #6acce1;
      }

      .cls-3 {
        fill: #3688c8;
      }

      .cls-4, .cls-5 {
        fill: #162444;
      }

      .cls-5 {
        font-family: Poppins-MediumItalic, Poppins;
        font-size: 210.94px;
        font-style: italic;
        font-weight: 500;
        letter-spacing: -.07em;
      }
    </style>
  </defs>
  <g id="Layer_1-2" data-name="Layer 1">
    <g>
      <text class="cls-5" transform="translate(800.48 343.25)"><tspan x="0" y="0">Sites</tspan></text>
      <path class="cls-2" d="M21.73,220.46h110.22v292.56H27.9c-3.41,0-6.17-2.76-6.17-6.17V220.46h0Z"/>
      <path class="cls-4" d="M390.29,525.13l-259.67-188.97L21.36,218.43l-.36-.36h213.91c31.71,0,56.28-88.25-9.45-97.43C132.31,107.71,18.59,149.22,0,19.1l272.15-4.01c144.44,54.89,148.72,267.2-14.89,314.65,9.36-2.76,115.76,70.17,143.37,80.74,0,0,26.17,64.63,87.75,114.66"/>
      <path class="cls-4" d="M518.15,422.46l2.23-.58c-.39,0-1.12.19-2.23.58ZM518.15,422.46l2.23-.58c-.39,0-1.12.19-2.23.58Z"/>
      <path class="cls-3" d="M685.1,57.2c-.24-.24-.44-.44-.68-.73-1.8,1.7-3.5,3.4-5.2,5.15-.24.24-.44.44-.68.68-2.19,2.28-4.32,4.61-6.41,6.99-18.11,20.54-31.95,44.92-40.35,71.58-4.56,13.94-7.53,28.5-8.89,43.56-.48,5.73-.68,11.56-.68,17.48v119.41c0,10.39-1.8,20.35-5.15,29.57-1.36,3.88-3.01,7.62-4.95,11.22-14.66,27.92-43.99,47-77.74,47-48.36,0-87.84-39.33-87.84-87.79,0-44.31-6.24-94.14,4.11-137.39,7.08-29.57,24.98-53.97,53.87-64.62,9.32-3.4,19.37-5.24,29.86-5.24,33.41,0,62.5,18.74,77.31,46.23,1.6-8.16,3.69-16.12,6.22-23.79,8.98-28.65,23.6-54.48,43.27-76.82,2.23-2.52,4.52-5.05,6.94-7.58.19-.19.44-.44.63-.63C633.14,19.47,585.99,0,534.37,0c-44.92,0-86.34,14.62-119.89,39.58l-13.31,10.88c-.15.1-.24.19-.34.34-4.13,3.64-8.11,7.53-11.99,11.51-21.22,21.9-37.39,48.8-46.76,78.57-4.56,13.94-7.53,28.5-8.89,43.56-.49,5.73-.68,11.56-.68,17.48v119.41c0,3.06.1,6.17.19,9.13,0,.78.15,1.6.15,2.38.19,5.15.68,10.25,1.36,15.3l2.67,11.85,5.05,22.19c1.55,5.1,3.4,10.1,5.39,15,18.6,45.84,53.61,83.38,97.75,105.03,2.28,1.26,4.56,2.28,6.85,3.3l10.88,3.93,17.53,6.31c17.19,4.9,35.35,7.43,54.05,7.43,51.62,0,98.67-19.47,134.36-51.38,1.8-1.6,3.59-3.25,5.34-4.95,1.75-1.65,3.5-3.4,5.2-5.15.24-.24.49-.53.73-.78,34.91-36.27,56.23-85.46,56.23-139.61v-110.81l5.97-31.81c-5-45.5-24.81-87.94-57.11-121.49Z"/>
      <path class="cls-2" d="M980.48,74.54l-84.64,76.82c-15.93-22.53-42.15-37.29-71.77-37.29-10.49,0-20.54,1.85-29.86,5.24-4.18,1.55-8.21,3.4-12.09,5.54h-.05c-3.25,1.8-6.46,3.79-9.47,5.97-4.81,3.5-9.27,7.48-13.31,11.9l-12.33,18.26-1.94,2.82-2.82,14.91-5.97,31.81v110.81c0,54.14-21.32,103.33-56.23,139.61-.24.24-.48.53-.73.78-1.36-1.31-2.62-2.67-3.88-4.03-16.22-17.58-29.28-38.02-38.36-60.5-1.99-4.9-3.84-9.91-5.39-15l-5.05-22.19-2.67-11.85c-.68-5.05-1.17-10.15-1.36-15.3,0-.78-.15-1.6-.15-2.38-.1-2.96-.19-6.07-.19-9.13v-119.41c0-5.92.19-11.75.68-17.48,1.36-15.05,4.32-29.62,8.89-43.56,8.4-26.66,22.24-51.04,40.35-71.58,2.09-2.38,4.22-4.71,6.41-6.99.24-.24.44-.44.68-.68,1.7-1.75,3.4-3.45,5.2-5.15,1.75-1.7,3.54-3.35,5.34-4.95.24-.24.53-.49.78-.73.1-.15.19-.24.34-.34l13.31-10.88c9.71-7.19,20.06-13.55,30.93-18.89,26.8-13.31,57.01-20.69,88.96-20.69,57.25,0,109.01,23.99,145.63,62.4,1.51,1.55,3.01,3.16,4.52,4.81,2.14,2.38,4.22,4.86,6.26,7.33Z"/>
      <path class="cls-3" d="M981.84,447.08c-3.79,4.81-7.87,9.42-12.14,13.84-11.9,12.43-25.35,23.31-40.06,32.39-30.69,18.94-66.87,29.86-105.57,29.86-10.68,0-21.17-.83-31.42-2.48-7.72-1.17-15.25-2.86-22.63-4.95l-17.53-6.31-10.88-3.93c-2.28-1.02-4.56-2.04-6.85-3.3-16.41-8.06-31.56-18.31-45.01-30.4.15-.15.44-.44.68-.68l.05-.1c29.09-30.2,48.41-67.59,56.33-107.99,14.81,27.34,43.75,45.94,76.92,46.08h.34c24.62,0,46.91-10.15,62.88-26.51l94.88,64.49Z"/>
      <path class="cls-1" d="M800.47,435.14l2.23-.58c-.39,0-1.12.19-2.23.58ZM800.47,435.14l2.23-.58c-.39,0-1.12.19-2.23.58ZM622.21,321.31v-119.41c0-5.92.19-11.75.68-17.48,1.36-15.05,4.32-29.62,8.89-43.56,8.4-26.66,22.24-51.04,40.35-71.58,2.09-2.38,4.22-4.71,6.41-6.99l.68-.68c3.64-3.74,7.43-7.38,11.31-10.83.1-.15.19-.24.34-.34l13.31-10.88c9.71-7.19,20.05-13.55,30.93-18.89C761.92,7.38,792.12,0,824.07,0,881.32,0,933.09,23.99,969.7,62.4c1.51,1.55,3.01,3.16,4.52,4.81,2.14,2.38,4.22,4.86,6.26,7.33l-84.64,76.82c-15.93-22.53-42.15-37.29-71.77-37.29-10.49,0-20.54,1.85-29.86,5.24-4.18,1.55-8.21,3.4-12.09,5.54h-.05c-3.25,1.8-6.46,3.79-9.47,5.97-4.81,3.5-9.27,7.48-13.31,11.9l-14.28,21.07-8.79,46.71v110.81c0,48.36,39.28,87.6,87.5,87.79h.34c24.62,0,46.91-10.15,62.88-26.51l94.88,64.49c-3.79,4.81-7.87,9.42-12.14,13.84-11.9,12.43-25.35,23.31-40.06,32.39-30.69,18.94-66.87,29.86-105.57,29.86-10.68,0-21.17-.83-31.42-2.48-7.72-1.17-15.25-2.86-22.63-4.95l-17.53-6.31-10.88-3.93c-2.28-1.02-4.56-2.04-6.85-3.3-20.83-10.2-39.62-23.99-55.5-40.5-1.36-1.31-2.62-2.67-3.88-4.03-16.22-17.58-29.28-38.02-38.36-60.5-1.99-4.9-3.84-9.91-5.39-15l-5.05-22.19-2.67-11.85c-.68-5.05-1.17-10.15-1.36-15.3,0-.78-.15-1.6-.15-2.38-.1-2.96-.19-6.07-.19-9.13"/>
      <path class="cls-3" d="M520.39,421.88l-2.23.58c1.12-.39,1.85-.58,2.23-.58Z"/>
    </g>
  </g>
</svg>