<svg data-v-fde0c5aa="" xmlns="http://www.w3.org/2000/svg" viewBox="0 0 300 300" class="iconAbove"><!----><defs data-v-fde0c5aa=""><linearGradient data-v-fde0c5aa="" gradientTransform="rotate(25)" id="b5b4b300-f97d-443f-8a6d-c58f99a8c830" x1="0%" y1="0%" x2="100%" y2="0%"><stop data-v-fde0c5aa="" offset="0%" stop-color="#E63500" stop-opacity="1"></stop><stop data-v-fde0c5aa="" offset="100%" stop-color="#FFC316" stop-opacity="1"></stop></linearGradient></defs><rect data-v-fde0c5aa="" fill="url(#b5b4b300-f97d-443f-8a6d-c58f99a8c830)" x="0" y="0" width="300px" height="300px" class="logo-background-square"></rect><defs data-v-fde0c5aa=""><!----></defs><g data-v-fde0c5aa="" id="286db561-aee2-40b6-92b7-94e5d914b390" fill="#ffffff" transform="matrix(2.599220265649068,0,0,2.599220265649068,17.01089675647384,161.54723467050746)"><path d="M6.79 14L6.79 14Q6.62 14 6.55 13.85L6.55 13.85L4.62 9.70L4.62 9.70Q4.59 9.65 4.54 9.65L4.54 9.65L2.56 9.65L2.56 9.65Q2.49 9.65 2.49 9.72L2.49 9.72L2.49 13.79L2.49 13.79Q2.49 13.89 2.44 13.94L2.44 13.94L2.44 13.94Q2.38 14 2.28 14L2.28 14L1.36 14L1.36 14Q1.26 14 1.20 13.94L1.20 13.94L1.20 13.94Q1.15 13.89 1.15 13.79L1.15 13.79L1.15 4.40L1.15 4.40Q1.15 4.30 1.20 4.24L1.20 4.24L1.20 4.24Q1.26 4.19 1.36 4.19L1.36 4.19L5.05 4.19L5.05 4.19Q5.89 4.19 6.53 4.54L6.53 4.54L6.53 4.54Q7.17 4.89 7.52 5.52L7.52 5.52L7.52 5.52Q7.87 6.15 7.87 6.97L7.87 6.97L7.87 6.97Q7.87 7.94 7.35 8.62L7.35 8.62L7.35 8.62Q6.83 9.30 5.95 9.53L5.95 9.53L5.95 9.53Q5.89 9.56 5.91 9.62L5.91 9.62L7.90 13.75L7.92 13.86L7.92 13.86Q7.92 14 7.74 14L7.74 14L6.79 14ZM2.56 5.35L2.56 5.35Q2.49 5.35 2.49 5.42L2.49 5.42L2.49 8.53L2.49 8.53Q2.49 8.60 2.56 8.60L2.56 8.60L4.89 8.60L4.89 8.60Q5.61 8.60 6.07 8.15L6.07 8.15L6.07 8.15Q6.52 7.70 6.52 6.99L6.52 6.99L6.52 6.99Q6.52 6.24 6.08 5.80L6.08 5.80L6.08 5.80Q5.63 5.35 4.89 5.35L4.89 5.35L2.56 5.35ZM12.56 12.96L12.56 12.96Q13.69 12.95 14.18 12.08L14.18 12.08L14.18 12.08Q14.25 11.96 14.34 11.96L14.34 11.96L14.34 11.96Q14.41 11.96 14.46 12.00L14.46 12.00L15.04 12.35L15.04 12.35Q15.15 12.42 15.15 12.53L15.15 12.53L15.12 12.64L15.12 12.64Q14.74 13.33 14.05 13.72L14.05 13.72L14.05 13.72Q13.36 14.11 12.43 14.11L12.43 14.11L12.43 14.11Q11.44 14.11 10.75 13.67L10.75 13.67L10.75 13.67Q10.07 13.23 9.72 12.40L9.72 12.40L9.72 12.40Q9.37 11.55 9.37 10.40L9.37 10.40L9.37 10.40Q9.37 9.38 9.52 8.85L9.52 8.85L9.52 8.85Q9.77 7.88 10.53 7.32L10.53 7.32L10.53 7.32Q11.28 6.76 12.36 6.76L12.36 6.76L12.36 6.76Q13.69 6.76 14.39 7.46L14.39 7.46L14.39 7.46Q15.09 8.15 15.30 9.46L15.30 9.46L15.30 9.46Q15.37 9.98 15.40 10.72L15.40 10.72L15.40 10.72Q15.40 10.93 15.19 10.93L15.19 10.93L10.77 10.93L10.77 10.93Q10.70 10.93 10.70 11.00L10.70 11.00L10.70 11.00Q10.72 11.54 10.79 11.76L10.79 11.76L10.79 11.76Q10.95 12.32 11.41 12.64L11.41 12.64L11.41 12.64Q11.87 12.96 12.56 12.96L12.56 12.96ZM12.36 7.92L12.36 7.92Q11.75 7.92 11.36 8.22L11.36 8.22L11.36 8.22Q10.98 8.51 10.84 9.03L10.84 9.03L10.84 9.03Q10.74 9.34 10.71 9.81L10.71 9.81L10.71 9.81Q10.71 9.88 10.78 9.88L10.78 9.88L13.96 9.88L13.96 9.88Q14.03 9.88 14.03 9.81L14.03 9.81L14.03 9.81Q14 9.35 13.94 9.13L13.94 9.13L13.94 9.13Q13.80 8.58 13.39 8.25L13.39 8.25L13.39 8.25Q12.98 7.92 12.36 7.92L12.36 7.92ZM21.43 4.41L21.43 4.41Q21.43 4.31 21.49 4.26L21.49 4.26L21.49 4.26Q21.55 4.20 21.64 4.20L21.64 4.20L22.57 4.20L22.57 4.20Q22.67 4.20 22.72 4.26L22.72 4.26L22.72 4.26Q22.78 4.31 22.78 4.41L22.78 4.41L22.78 13.79L22.78 13.79Q22.78 13.89 22.72 13.94L22.72 13.94L22.72 13.94Q22.67 14 22.57 14L22.57 14L21.64 14L21.64 14Q21.55 14 21.49 13.94L21.49 13.94L21.49 13.94Q21.43 13.89 21.43 13.79L21.43 13.79L21.43 13.43L21.43 13.43Q21.43 13.38 21.41 13.37L21.41 13.37L21.41 13.37Q21.38 13.36 21.35 13.38L21.35 13.38L21.35 13.38Q21.04 13.73 20.63 13.92L20.63 13.92L20.63 13.92Q20.22 14.11 19.73 14.11L19.73 14.11L19.73 14.11Q18.72 14.11 18.05 13.62L18.05 13.62L18.05 13.62Q17.39 13.12 17.08 12.21L17.08 12.21L17.08 12.21Q16.83 11.51 16.83 10.42L16.83 10.42L16.83 10.42Q16.83 9.39 17.04 8.72L17.04 8.72L17.04 8.72Q17.33 7.80 18.01 7.28L18.01 7.28L18.01 7.28Q18.69 6.76 19.73 6.76L19.73 6.76L19.73 6.76Q20.22 6.76 20.63 6.94L20.63 6.94L20.63 6.94Q21.04 7.13 21.35 7.48L21.35 7.48L21.35 7.48Q21.38 7.50 21.41 7.50L21.41 7.50L21.41 7.50Q21.43 7.49 21.43 7.45L21.43 7.45L21.43 4.41ZM21.08 12.19L21.08 12.19Q21.42 11.58 21.42 10.43L21.42 10.43L21.42 10.43Q21.42 9.28 21.06 8.64L21.06 8.64L21.06 8.64Q20.65 7.92 19.87 7.92L19.87 7.92L19.87 7.92Q19.05 7.92 18.62 8.60L18.62 8.60L18.62 8.60Q18.17 9.30 18.17 10.44L18.17 10.44L18.17 10.44Q18.17 11.52 18.52 12.18L18.52 12.18L18.52 12.18Q18.93 12.95 19.87 12.95L19.87 12.95L19.87 12.95Q20.66 12.95 21.08 12.19L21.08 12.19ZM28.76 4.19L28.76 4.19Q29.61 4.19 30.26 4.54L30.26 4.54L30.26 4.54Q30.91 4.90 31.27 5.54L31.27 5.54L31.27 5.54Q31.63 6.19 31.63 7.03L31.63 7.03L31.63 7.03Q31.63 7.87 31.26 8.50L31.26 8.50L31.26 8.50Q30.90 9.13 30.23 9.48L30.23 9.48L30.23 9.48Q29.57 9.83 28.70 9.83L28.70 9.83L26.25 9.83L26.25 9.83Q26.18 9.83 26.18 9.90L26.18 9.90L26.18 13.79L26.18 13.79Q26.18 13.89 26.12 13.94L26.12 13.94L26.12 13.94Q26.07 14 25.97 14L25.97 14L25.05 14L25.05 14Q24.95 14 24.89 13.94L24.89 13.94L24.89 13.94Q24.84 13.89 24.84 13.79L24.84 13.79L24.84 4.40L24.84 4.40Q24.84 4.30 24.89 4.24L24.89 4.24L24.89 4.24Q24.95 4.19 25.05 4.19L25.05 4.19L28.76 4.19ZM28.57 8.74L28.57 8.74Q29.34 8.74 29.81 8.27L29.81 8.27L29.81 8.27Q30.28 7.81 30.28 7.06L30.28 7.06L30.28 7.06Q30.28 6.29 29.81 5.82L29.81 5.82L29.81 5.82Q29.34 5.35 28.57 5.35L28.57 5.35L26.25 5.35L26.25 5.35Q26.18 5.35 26.18 5.42L26.18 5.42L26.18 8.67L26.18 8.67Q26.18 8.74 26.25 8.74L26.25 8.74L28.57 8.74ZM33.84 5.81L33.84 5.81Q33.43 5.81 33.17 5.56L33.17 5.56L33.17 5.56Q32.91 5.32 32.91 4.93L32.91 4.93L32.91 4.93Q32.91 4.54 33.17 4.29L33.17 4.29L33.17 4.29Q33.43 4.05 33.84 4.05L33.84 4.05L33.84 4.05Q34.24 4.05 34.50 4.29L34.50 4.29L34.50 4.29Q34.75 4.54 34.75 4.93L34.75 4.93L34.75 4.93Q34.75 5.32 34.50 5.56L34.50 5.56L34.50 5.56Q34.24 5.81 33.84 5.81L33.84 5.81ZM33.38 14L33.38 14Q33.28 14 33.22 13.94L33.22 13.94L33.22 13.94Q33.17 13.89 33.17 13.79L33.17 13.79L33.17 7.08L33.17 7.08Q33.17 6.99 33.22 6.93L33.22 6.93L33.22 6.93Q33.28 6.87 33.38 6.87L33.38 6.87L34.30 6.87L34.30 6.87Q34.40 6.87 34.45 6.93L34.45 6.93L34.45 6.93Q34.51 6.99 34.51 7.08L34.51 7.08L34.51 13.79L34.51 13.79Q34.51 13.89 34.45 13.94L34.45 13.94L34.45 13.94Q34.40 14 34.30 14L34.30 14L33.38 14ZM39.75 6.78L39.75 6.78Q40.89 6.78 41.57 7.44L41.57 7.44L41.57 7.44Q42.24 8.11 42.24 9.24L42.24 9.24L42.24 13.79L42.24 13.79Q42.24 13.89 42.18 13.94L42.18 13.94L42.18 13.94Q42.13 14 42.03 14L42.03 14L41.10 14L41.10 14Q41.01 14 40.95 13.94L40.95 13.94L40.95 13.94Q40.89 13.89 40.89 13.79L40.89 13.79L40.89 9.51L40.89 9.51Q40.89 8.81 40.49 8.37L40.49 8.37L40.49 8.37Q40.08 7.94 39.41 7.94L39.41 7.94L39.41 7.94Q38.81 7.94 38.40 8.29L38.40 8.29L38.40 8.29Q37.98 8.65 37.91 9.25L37.91 9.25L37.91 13.79L37.91 13.79Q37.91 13.89 37.86 13.94L37.86 13.94L37.86 13.94Q37.80 14 37.70 14L37.70 14L36.78 14L36.78 14Q36.68 14 36.62 13.94L36.62 13.94L36.62 13.94Q36.57 13.89 36.57 13.79L36.57 13.79L36.57 7.08L36.57 7.08Q36.57 6.99 36.62 6.93L36.62 6.93L36.62 6.93Q36.68 6.87 36.78 6.87L36.78 6.87L37.70 6.87L37.70 6.87Q37.80 6.87 37.86 6.93L37.86 6.93L37.86 6.93Q37.91 6.99 37.91 7.08L37.91 7.08L37.91 7.48L37.91 7.48Q37.91 7.52 37.94 7.53L37.94 7.53L37.94 7.53Q37.97 7.55 37.98 7.52L37.98 7.52L37.98 7.52Q38.57 6.78 39.75 6.78L39.75 6.78ZM49.66 14L49.66 14Q49.48 14 49.42 13.83L49.42 13.83L46.45 4.44L46.45 4.44Q46.44 4.41 46.44 4.35L46.44 4.35L46.44 4.35Q46.44 4.20 46.63 4.20L46.63 4.20L47.63 4.20L47.63 4.20Q47.71 4.20 47.78 4.25L47.78 4.25L47.78 4.25Q47.85 4.30 47.87 4.38L47.87 4.38L50.16 12.01L50.16 12.01Q50.18 12.07 50.20 12.07L50.20 12.07L50.20 12.07Q50.23 12.07 50.25 12.01L50.25 12.01L52.53 4.38L52.53 4.38Q52.54 4.30 52.61 4.25L52.61 4.25L52.61 4.25Q52.68 4.20 52.77 4.20L52.77 4.20L53.73 4.20L53.73 4.20Q53.98 4.20 53.91 4.44L53.91 4.44L50.92 13.83L50.92 13.83Q50.86 14 50.68 14L50.68 14L49.66 14ZM58.37 12.96L58.37 12.96Q59.50 12.95 59.99 12.08L59.99 12.08L59.99 12.08Q60.06 11.96 60.14 11.96L60.14 11.96L60.14 11.96Q60.21 11.96 60.27 12.00L60.27 12.00L60.84 12.35L60.84 12.35Q60.96 12.42 60.96 12.53L60.96 12.53L60.93 12.64L60.93 12.64Q60.55 13.33 59.86 13.72L59.86 13.72L59.86 13.72Q59.16 14.11 58.24 14.11L58.24 14.11L58.24 14.11Q57.25 14.11 56.56 13.67L56.56 13.67L56.56 13.67Q55.87 13.23 55.52 12.40L55.52 12.40L55.52 12.40Q55.17 11.55 55.17 10.40L55.17 10.40L55.17 10.40Q55.17 9.38 55.33 8.85L55.33 8.85L55.33 8.85Q55.58 7.88 56.34 7.32L56.34 7.32L56.34 7.32Q57.09 6.76 58.17 6.76L58.17 6.76L58.17 6.76Q59.50 6.76 60.20 7.46L60.20 7.46L60.20 7.46Q60.90 8.15 61.11 9.46L61.11 9.46L61.11 9.46Q61.18 9.98 61.21 10.72L61.21 10.72L61.21 10.72Q61.21 10.93 61.00 10.93L61.00 10.93L56.57 10.93L56.57 10.93Q56.50 10.93 56.50 11.00L56.50 11.00L56.50 11.00Q56.53 11.54 56.60 11.76L56.60 11.76L56.60 11.76Q56.76 12.32 57.22 12.64L57.22 12.64L57.22 12.64Q57.68 12.96 58.37 12.96L58.37 12.96ZM58.17 7.92L58.17 7.92Q57.55 7.92 57.17 8.22L57.17 8.22L57.17 8.22Q56.78 8.51 56.64 9.03L56.64 9.03L56.64 9.03Q56.55 9.34 56.52 9.81L56.52 9.81L56.52 9.81Q56.52 9.88 56.59 9.88L56.59 9.88L59.77 9.88L59.77 9.88Q59.84 9.88 59.84 9.81L59.84 9.81L59.84 9.81Q59.81 9.35 59.75 9.13L59.75 9.13L59.75 9.13Q59.61 8.58 59.20 8.25L59.20 8.25L59.20 8.25Q58.79 7.92 58.17 7.92L58.17 7.92ZM66.08 6.78L66.08 6.78Q67.23 6.78 67.90 7.44L67.90 7.44L67.90 7.44Q68.57 8.11 68.57 9.24L68.57 9.24L68.57 13.79L68.57 13.79Q68.57 13.89 68.52 13.94L68.52 13.94L68.52 13.94Q68.46 14 68.36 14L68.36 14L67.44 14L67.44 14Q67.34 14 67.28 13.94L67.28 13.94L67.28 13.94Q67.23 13.89 67.23 13.79L67.23 13.79L67.23 9.51L67.23 9.51Q67.23 8.81 66.82 8.37L66.82 8.37L66.82 8.37Q66.42 7.94 65.74 7.94L65.74 7.94L65.74 7.94Q65.14 7.94 64.73 8.29L64.73 8.29L64.73 8.29Q64.32 8.65 64.25 9.25L64.25 9.25L64.25 13.79L64.25 13.79Q64.25 13.89 64.19 13.94L64.19 13.94L64.19 13.94Q64.13 14 64.04 14L64.04 14L63.11 14L63.11 14Q63.01 14 62.96 13.94L62.96 13.94L62.96 13.94Q62.90 13.89 62.90 13.79L62.90 13.79L62.90 7.08L62.90 7.08Q62.90 6.99 62.96 6.93L62.96 6.93L62.96 6.93Q63.01 6.87 63.11 6.87L63.11 6.87L64.04 6.87L64.04 6.87Q64.13 6.87 64.19 6.93L64.19 6.93L64.19 6.93Q64.25 6.99 64.25 7.08L64.25 7.08L64.25 7.48L64.25 7.48Q64.25 7.52 64.27 7.53L64.27 7.53L64.27 7.53Q64.30 7.55 64.32 7.52L64.32 7.52L64.32 7.52Q64.90 6.78 66.08 6.78L66.08 6.78ZM74.00 7.77L74.00 7.77Q74.00 7.87 73.95 7.92L73.95 7.92L73.95 7.92Q73.89 7.98 73.79 7.98L73.79 7.98L72.37 7.98L72.37 7.98Q72.30 7.98 72.30 8.05L72.30 8.05L72.30 11.70L72.30 11.70Q72.30 12.31 72.55 12.56L72.55 12.56L72.55 12.56Q72.81 12.81 73.39 12.81L73.39 12.81L73.72 12.81L73.72 12.81Q73.82 12.81 73.88 12.87L73.88 12.87L73.88 12.87Q73.93 12.92 73.93 13.02L73.93 13.02L73.93 13.75L73.93 13.75Q73.93 13.94 73.72 13.97L73.72 13.97L73.15 13.99L73.15 13.99Q72.07 13.99 71.54 13.61L71.54 13.61L71.54 13.61Q71.01 13.23 71.01 12.19L71.01 12.19L71.01 8.05L71.01 8.05Q71.01 7.98 70.94 7.98L70.94 7.98L70.17 7.98L70.17 7.98Q70.07 7.98 70.01 7.92L70.01 7.92L70.01 7.92Q69.96 7.87 69.96 7.77L69.96 7.77L69.96 7.08L69.96 7.08Q69.96 6.99 70.01 6.93L70.01 6.93L70.01 6.93Q70.07 6.87 70.17 6.87L70.17 6.87L70.94 6.87L70.94 6.87Q71.01 6.87 71.01 6.80L71.01 6.80L71.01 5.24L71.01 5.24Q71.01 5.14 71.06 5.08L71.06 5.08L71.06 5.08Q71.12 5.03 71.22 5.03L71.22 5.03L72.09 5.03L72.09 5.03Q72.18 5.03 72.24 5.08L72.24 5.08L72.24 5.08Q72.30 5.14 72.30 5.24L72.30 5.24L72.30 6.80L72.30 6.80Q72.30 6.87 72.37 6.87L72.37 6.87L73.79 6.87L73.79 6.87Q73.89 6.87 73.95 6.93L73.95 6.93L73.95 6.93Q74.00 6.99 74.00 7.08L74.00 7.08L74.00 7.77ZM79.90 7.08L79.90 7.08Q79.90 6.99 79.95 6.93L79.95 6.93L79.95 6.93Q80.01 6.87 80.11 6.87L80.11 6.87L81.02 6.87L81.02 6.87Q81.12 6.87 81.17 6.93L81.17 6.93L81.17 6.93Q81.23 6.99 81.23 7.08L81.23 7.08L81.23 13.79L81.23 13.79Q81.23 13.89 81.17 13.94L81.17 13.94L81.17 13.94Q81.12 14 81.02 14L81.02 14L80.11 14L80.11 14Q80.01 14 79.95 13.94L79.95 13.94L79.95 13.94Q79.90 13.89 79.90 13.79L79.90 13.79L79.90 13.37L79.90 13.37Q79.90 13.33 79.87 13.32L79.87 13.32L79.87 13.32Q79.84 13.31 79.81 13.34L79.81 13.34L79.81 13.34Q79.25 14.10 78.11 14.10L78.11 14.10L78.11 14.10Q77.42 14.10 76.84 13.83L76.84 13.83L76.84 13.83Q76.26 13.57 75.91 13.05L75.91 13.05L75.91 13.05Q75.56 12.53 75.56 11.79L75.56 11.79L75.56 7.08L75.56 7.08Q75.56 6.99 75.61 6.93L75.61 6.93L75.61 6.93Q75.67 6.87 75.77 6.87L75.77 6.87L76.68 6.87L76.68 6.87Q76.78 6.87 76.83 6.93L76.83 6.93L76.83 6.93Q76.89 6.99 76.89 7.08L76.89 7.08L76.89 11.37L76.89 11.37Q76.89 12.10 77.27 12.52L77.27 12.52L77.27 12.52Q77.66 12.94 78.36 12.94L78.36 12.94L78.36 12.94Q79.06 12.94 79.48 12.51L79.48 12.51L79.48 12.51Q79.90 12.08 79.90 11.37L79.90 11.37L79.90 7.08ZM86.31 6.80L86.31 6.80Q86.73 6.80 87.07 6.96L87.07 6.96L87.07 6.96Q87.22 7.04 87.18 7.22L87.18 7.22L86.98 8.13L86.98 8.13Q86.97 8.27 86.84 8.27L86.84 8.27L86.84 8.27Q86.77 8.27 86.73 8.26L86.73 8.26L86.73 8.26Q86.52 8.19 86.25 8.19L86.25 8.19L86.25 8.19Q86.11 8.19 86.04 8.20L86.04 8.20L86.04 8.20Q85.39 8.23 84.96 8.66L84.96 8.66L84.96 8.66Q84.53 9.09 84.53 9.77L84.53 9.77L84.53 13.79L84.53 13.79Q84.53 13.89 84.48 13.94L84.48 13.94L84.48 13.94Q84.42 14 84.32 14L84.32 14L83.40 14L83.40 14Q83.30 14 83.24 13.94L83.24 13.94L83.24 13.94Q83.19 13.89 83.19 13.79L83.19 13.79L83.19 7.08L83.19 7.08Q83.19 6.99 83.24 6.93L83.24 6.93L83.24 6.93Q83.30 6.87 83.40 6.87L83.40 6.87L84.32 6.87L84.32 6.87Q84.42 6.87 84.48 6.93L84.48 6.93L84.48 6.93Q84.53 6.99 84.53 7.08L84.53 7.08L84.53 7.73L84.53 7.73Q84.53 7.78 84.55 7.79L84.55 7.79L84.55 7.79Q84.57 7.80 84.60 7.76L84.60 7.76L84.60 7.76Q85.23 6.80 86.31 6.80L86.31 6.80ZM91.38 12.96L91.38 12.96Q92.51 12.95 93.00 12.08L93.00 12.08L93.00 12.08Q93.07 11.96 93.16 11.96L93.16 11.96L93.16 11.96Q93.23 11.96 93.28 12.00L93.28 12.00L93.86 12.35L93.86 12.35Q93.97 12.42 93.97 12.53L93.97 12.53L93.94 12.64L93.94 12.64Q93.56 13.33 92.87 13.72L92.87 13.72L92.87 13.72Q92.18 14.11 91.25 14.11L91.25 14.11L91.25 14.11Q90.26 14.11 89.57 13.67L89.57 13.67L89.57 13.67Q88.89 13.23 88.54 12.40L88.54 12.40L88.54 12.40Q88.19 11.55 88.19 10.40L88.19 10.40L88.19 10.40Q88.19 9.38 88.34 8.85L88.34 8.85L88.34 8.85Q88.59 7.88 89.35 7.32L89.35 7.32L89.35 7.32Q90.10 6.76 91.18 6.76L91.18 6.76L91.18 6.76Q92.51 6.76 93.21 7.46L93.21 7.46L93.21 7.46Q93.91 8.15 94.12 9.46L94.12 9.46L94.12 9.46Q94.19 9.98 94.22 10.72L94.22 10.72L94.22 10.72Q94.22 10.93 94.01 10.93L94.01 10.93L89.59 10.93L89.59 10.93Q89.52 10.93 89.52 11.00L89.52 11.00L89.52 11.00Q89.54 11.54 89.61 11.76L89.61 11.76L89.61 11.76Q89.77 12.32 90.23 12.64L90.23 12.64L90.23 12.64Q90.69 12.96 91.38 12.96L91.38 12.96ZM91.18 7.92L91.18 7.92Q90.57 7.92 90.18 8.22L90.18 8.22L90.18 8.22Q89.80 8.51 89.66 9.03L89.66 9.03L89.66 9.03Q89.56 9.34 89.53 9.81L89.53 9.81L89.53 9.81Q89.53 9.88 89.60 9.88L89.60 9.88L92.78 9.88L92.78 9.88Q92.85 9.88 92.85 9.81L92.85 9.81L92.85 9.81Q92.82 9.35 92.76 9.13L92.76 9.13L92.76 9.13Q92.62 8.58 92.21 8.25L92.21 8.25L92.21 8.25Q91.80 7.92 91.18 7.92L91.18 7.92ZM98.42 14.08L98.42 14.08Q97.59 14.08 96.96 13.83L96.96 13.83L96.96 13.83Q96.32 13.58 95.97 13.14L95.97 13.14L95.97 13.14Q95.62 12.70 95.62 12.17L95.62 12.17L95.62 12.08L95.62 12.08Q95.62 11.98 95.68 11.93L95.68 11.93L95.68 11.93Q95.73 11.87 95.83 11.87L95.83 11.87L96.70 11.87L96.70 11.87Q96.80 11.87 96.85 11.90L96.85 11.90L96.85 11.90Q96.91 11.93 96.91 11.97L96.91 11.97L96.91 12.08L96.91 12.08Q96.91 12.47 97.33 12.77L97.33 12.77L97.33 12.77Q97.76 13.06 98.41 13.06L98.41 13.06L98.41 13.06Q99.05 13.06 99.44 12.79L99.44 12.79L99.44 12.79Q99.83 12.52 99.83 12.10L99.83 12.10L99.83 12.10Q99.83 11.69 99.47 11.49L99.47 11.49L99.47 11.49Q99.11 11.28 98.29 11.06L98.29 11.06L98.29 11.06Q97.50 10.84 96.96 10.61L96.96 10.61L96.96 10.61Q96.42 10.37 96.05 9.95L96.05 9.95L96.05 9.95Q95.68 9.52 95.68 8.85L95.68 8.85L95.68 8.85Q95.68 7.91 96.41 7.36L96.41 7.36L96.41 7.36Q97.15 6.80 98.36 6.80L98.36 6.80L98.36 6.80Q99.18 6.80 99.80 7.06L99.80 7.06L99.80 7.06Q100.42 7.32 100.76 7.78L100.76 7.78L100.76 7.78Q101.09 8.25 101.09 8.82L101.09 8.82L101.09 8.82Q101.09 8.90 101.04 8.95L101.04 8.95L101.04 8.95Q100.98 9.00 100.88 9.00L100.88 9.00L100.04 9.00L100.04 9.00Q99.95 9.00 99.89 8.97L99.89 8.97L99.89 8.97Q99.83 8.95 99.83 8.90L99.83 8.90L99.83 8.82L99.83 8.82Q99.83 8.41 99.43 8.14L99.43 8.14L99.43 8.14Q99.04 7.87 98.35 7.87L98.35 7.87L98.35 7.87Q97.73 7.87 97.35 8.11L97.35 8.11L97.35 8.11Q96.96 8.34 96.96 8.75L96.96 8.75L96.96 8.75Q96.96 9.16 97.33 9.37L97.33 9.37L97.33 9.37Q97.71 9.58 98.53 9.81L98.53 9.81L98.53 9.81Q99.34 10.04 99.88 10.25L99.88 10.25L99.88 10.25Q100.42 10.47 100.80 10.90L100.80 10.90L100.80 10.90Q101.18 11.33 101.18 12.01L101.18 12.01L101.18 12.01Q101.18 12.96 100.43 13.52L100.43 13.52L100.43 13.52Q99.68 14.08 98.42 14.08L98.42 14.08Z"></path></g><defs data-v-fde0c5aa=""><!----></defs><g data-v-fde0c5aa="" id="cd6c602b-8641-4870-860c-11292e8febf5" stroke="none" fill="#ffffff" transform="matrix(2.7912205806057804,0,0,2.7912205806057804,105.34047071030751,83.2663934681594)"><path d="M16 19.586l7.496-12.954H8.504zM7.496 12.414L0 25.368h14.992zM24.504 12.414l-7.496 12.954H32z"></path></g><!----></svg>