<svg data-v-423bf9ae="" xmlns="http://www.w3.org/2000/svg" viewBox="0 0 451 90" class="iconLeft"><!----><!----><!----><g data-v-423bf9ae="" id="21061e5a-c021-4fa0-a579-1fa839eadb14" fill="#ffffff" transform="matrix(5.836575485636349,0,0,5.836575485636349,104.51362053970982,0.23346251939574358)"><path d="M9.82 12.67L7.55 12.67L5.32 9.02L2.95 9.02L2.95 12.67L0.94 12.67L0.94 3.04L5.75 3.04L5.75 3.04Q7.47 3.04 8.41 3.78L8.41 3.78L8.41 3.78Q9.34 4.53 9.34 5.91L9.34 5.91L9.34 5.91Q9.34 6.92 8.77 7.66L8.77 7.66L8.77 7.66Q8.20 8.39 7.22 8.63L7.22 8.63L9.82 12.67ZM7.31 6.00L7.31 6.00L7.31 6.00Q7.31 4.61 5.54 4.61L5.54 4.61L2.95 4.61L2.95 7.45L5.59 7.45L5.59 7.45Q6.44 7.45 6.88 7.07L6.88 7.07L6.88 7.07Q7.31 6.69 7.31 6.00ZM18.12 8.97L18.12 8.97L18.12 8.97Q18.12 10.77 17.12 11.79L17.12 11.79L17.12 11.79Q16.12 12.81 14.36 12.81L14.36 12.81L14.36 12.81Q12.63 12.81 11.64 11.79L11.64 11.79L11.64 11.79Q10.66 10.76 10.66 8.97L10.66 8.97L10.66 8.97Q10.66 7.18 11.64 6.16L11.64 6.16L11.64 6.16Q12.63 5.14 14.40 5.14L14.40 5.14L14.40 5.14Q16.21 5.14 17.16 6.13L17.16 6.13L17.16 6.13Q18.12 7.12 18.12 8.97ZM16.11 8.97L16.11 8.97L16.11 8.97Q16.11 7.65 15.67 7.05L15.67 7.05L15.67 7.05Q15.24 6.46 14.42 6.46L14.42 6.46L14.42 6.46Q12.67 6.46 12.67 8.97L12.67 8.97L12.67 8.97Q12.67 10.21 13.10 10.85L13.10 10.85L13.10 10.85Q13.53 11.50 14.33 11.50L14.33 11.50L14.33 11.50Q16.11 11.50 16.11 8.97ZM22.72 12.81L22.72 12.81L22.72 12.81Q21.04 12.81 20.13 11.81L20.13 11.81L20.13 11.81Q19.21 10.81 19.21 9.02L19.21 9.02L19.21 9.02Q19.21 7.18 20.13 6.16L20.13 6.16L20.13 6.16Q21.05 5.14 22.75 5.14L22.75 5.14L22.75 5.14Q24.06 5.14 24.91 5.80L24.91 5.80L24.91 5.80Q25.76 6.45 25.98 7.61L25.98 7.61L24.05 7.70L24.05 7.70Q23.97 7.14 23.64 6.80L23.64 6.80L23.64 6.80Q23.31 6.46 22.71 6.46L22.71 6.46L22.71 6.46Q21.23 6.46 21.23 8.94L21.23 8.94L21.23 8.94Q21.23 11.50 22.74 11.50L22.74 11.50L22.74 11.50Q23.28 11.50 23.65 11.15L23.65 11.15L23.65 11.15Q24.02 10.81 24.11 10.12L24.11 10.12L26.04 10.21L26.04 10.21Q25.94 10.97 25.49 11.57L25.49 11.57L25.49 11.57Q25.05 12.16 24.34 12.49L24.34 12.49L24.34 12.49Q23.62 12.81 22.72 12.81ZM35.24 9.90L35.24 9.90L35.24 9.90Q35.24 11.31 34.19 12.06L34.19 12.06L34.19 12.06Q33.14 12.81 31.11 12.81L31.11 12.81L31.11 12.81Q29.26 12.81 28.21 12.15L28.21 12.15L28.21 12.15Q27.15 11.50 26.85 10.17L26.85 10.17L28.80 9.84L28.80 9.84Q29.00 10.61 29.57 10.95L29.57 10.95L29.57 10.95Q30.15 11.30 31.17 11.30L31.17 11.30L31.17 11.30Q33.28 11.30 33.28 10.01L33.28 10.01L33.28 10.01Q33.28 9.60 33.03 9.34L33.03 9.34L33.03 9.34Q32.79 9.07 32.35 8.89L32.35 8.89L32.35 8.89Q31.91 8.72 30.66 8.46L30.66 8.46L30.66 8.46Q29.58 8.21 29.16 8.06L29.16 8.06L29.16 8.06Q28.73 7.90 28.39 7.69L28.39 7.69L28.39 7.69Q28.05 7.49 27.81 7.19L27.81 7.19L27.81 7.19Q27.57 6.90 27.44 6.50L27.44 6.50L27.44 6.50Q27.30 6.10 27.30 5.59L27.30 5.59L27.30 5.59Q27.30 4.29 28.28 3.59L28.28 3.59L28.28 3.59Q29.26 2.90 31.14 2.90L31.14 2.90L31.14 2.90Q32.93 2.90 33.83 3.46L33.83 3.46L33.83 3.46Q34.73 4.02 34.99 5.31L34.99 5.31L33.03 5.58L33.03 5.58Q32.88 4.96 32.42 4.64L32.42 4.64L32.42 4.64Q31.96 4.33 31.10 4.33L31.10 4.33L31.10 4.33Q29.26 4.33 29.26 5.48L29.26 5.48L29.26 5.48Q29.26 5.85 29.46 6.09L29.46 6.09L29.46 6.09Q29.65 6.33 30.04 6.50L30.04 6.50L30.04 6.50Q30.42 6.67 31.59 6.92L31.59 6.92L31.59 6.92Q32.98 7.21 33.57 7.46L33.57 7.46L33.57 7.46Q34.17 7.71 34.52 8.04L34.52 8.04L34.52 8.04Q34.87 8.37 35.05 8.84L35.05 8.84L35.05 8.84Q35.24 9.30 35.24 9.90ZM38.68 3.94L36.76 3.94L36.76 2.53L38.68 2.53L38.68 3.94ZM38.68 12.67L36.76 12.67L36.76 5.28L38.68 5.28L38.68 12.67ZM42.55 12.80L42.55 12.80L42.55 12.80Q41.70 12.80 41.24 12.34L41.24 12.34L41.24 12.34Q40.78 11.87 40.78 10.94L40.78 10.94L40.78 6.58L39.85 6.58L39.85 5.28L40.88 5.28L41.48 3.54L42.68 3.54L42.68 5.28L44.08 5.28L44.08 6.58L42.68 6.58L42.68 10.42L42.68 10.42Q42.68 10.96 42.89 11.21L42.89 11.21L42.89 11.21Q43.09 11.47 43.52 11.47L43.52 11.47L43.52 11.47Q43.75 11.47 44.17 11.38L44.17 11.38L44.17 12.56L44.17 12.56Q43.46 12.80 42.55 12.80ZM48.34 12.81L48.34 12.81L48.34 12.81Q46.68 12.81 45.78 11.82L45.78 11.82L45.78 11.82Q44.88 10.83 44.88 8.94L44.88 8.94L44.88 8.94Q44.88 7.11 45.79 6.13L45.79 6.13L45.79 6.13Q46.70 5.14 48.37 5.14L48.37 5.14L48.37 5.14Q49.96 5.14 50.80 6.20L50.80 6.20L50.80 6.20Q51.65 7.25 51.65 9.29L51.65 9.29L51.65 9.34L46.90 9.34L46.90 9.34Q46.90 10.42 47.30 10.98L47.30 10.98L47.30 10.98Q47.70 11.53 48.44 11.53L48.44 11.53L48.44 11.53Q49.46 11.53 49.72 10.64L49.72 10.64L51.54 10.80L51.54 10.80Q50.75 12.81 48.34 12.81ZM48.34 6.35L48.34 6.35L48.34 6.35Q47.67 6.35 47.30 6.82L47.30 6.82L47.30 6.82Q46.94 7.29 46.92 8.14L46.92 8.14L49.79 8.14L49.79 8.14Q49.73 7.25 49.36 6.80L49.36 6.80L49.36 6.80Q48.98 6.35 48.34 6.35ZM59.34 10.51L59.34 10.51L59.34 10.51Q59.34 11.59 58.46 12.20L58.46 12.20L58.46 12.20Q57.58 12.81 56.03 12.81L56.03 12.81L56.03 12.81Q54.50 12.81 53.69 12.33L53.69 12.33L53.69 12.33Q52.88 11.85 52.62 10.83L52.62 10.83L54.30 10.58L54.30 10.58Q54.45 11.10 54.80 11.32L54.80 11.32L54.80 11.32Q55.15 11.54 56.03 11.54L56.03 11.54L56.03 11.54Q56.83 11.54 57.20 11.33L57.20 11.33L57.20 11.33Q57.57 11.13 57.57 10.69L57.57 10.69L57.57 10.69Q57.57 10.34 57.27 10.13L57.27 10.13L57.27 10.13Q56.98 9.92 56.27 9.78L56.27 9.78L56.27 9.78Q54.64 9.45 54.07 9.18L54.07 9.18L54.07 9.18Q53.50 8.90 53.21 8.46L53.21 8.46L53.21 8.46Q52.91 8.02 52.91 7.38L52.91 7.38L52.91 7.38Q52.91 6.32 53.73 5.73L53.73 5.73L53.73 5.73Q54.54 5.13 56.04 5.13L56.04 5.13L56.04 5.13Q57.36 5.13 58.16 5.65L58.16 5.65L58.16 5.65Q58.97 6.16 59.17 7.13L59.17 7.13L57.46 7.31L57.46 7.31Q57.38 6.86 57.06 6.63L57.06 6.63L57.06 6.63Q56.74 6.41 56.04 6.41L56.04 6.41L56.04 6.41Q55.36 6.41 55.02 6.59L55.02 6.59L55.02 6.59Q54.67 6.76 54.67 7.17L54.67 7.17L54.67 7.17Q54.67 7.49 54.94 7.68L54.94 7.68L54.94 7.68Q55.20 7.87 55.82 7.99L55.82 7.99L55.82 7.99Q56.69 8.17 57.36 8.36L57.36 8.36L57.36 8.36Q58.04 8.54 58.44 8.80L58.44 8.80L58.44 8.80Q58.85 9.06 59.09 9.47L59.09 9.47L59.09 9.47Q59.34 9.88 59.34 10.51Z"></path></g><!----><g data-v-423bf9ae="" id="c25ea5a9-6fb0-4b98-acd8-26e63a8e4fe6" transform="matrix(2.8125,0,0,2.8125,0,0)" stroke="currentColor" fill="#162444"><path d="M9.382 8.675h13.943v13.943L32 31.293V0H.707zM22.618 23.325H8.675V9.382L0 .707V32h31.293z"></path></g><!----></svg>