<?xml version="1.0" encoding="UTF-8"?>
<svg id="Layer_2" data-name="Layer 2" xmlns="http://www.w3.org/2000/svg" viewBox="0 0 1357.49 724.66">
  <defs>
    <style>
      .cls-1 {
        fill: none;
      }

      .cls-2 {
        fill: #6acce1;
      }

      .cls-3 {
        fill: #3688c8;
      }

      .cls-4 {
        font-family: Poppins-MediumItalic, Poppins;
        font-size: 190.06px;
        font-style: italic;
        font-weight: 500;
        letter-spacing: -.08em;
      }

      .cls-4, .cls-5 {
        fill: #fff;
      }

      .cls-6 {
        fill: #162444;
      }
    </style>
  </defs>
  <g id="Layer_1-2" data-name="Layer 1">
    <g>
      <rect class="cls-6" x="0" width="1357.49" height="724.66"/>
      <g>
        <text class="cls-4" transform="translate(877.31 411.27)"><tspan x="0" y="0">Sites</tspan></text>
        <path class="cls-2" d="M175.67,300.64h99.31v263.59h-93.14c-3.41,0-6.17-2.76-6.17-6.17v-257.42h0Z"/>
        <path class="cls-5" d="M507.74,575.14l-233.96-170.26-98.43-106.07-.32-.32h192.73c28.57,0,50.7-79.51-8.52-87.79-83.93-11.65-186.38,25.75-203.14-91.48l245.2-3.62c130.13,49.46,133.99,240.74-13.42,283.49,8.44-2.49,104.3,63.22,129.17,72.74,0,0,23.58,58.23,79.06,103.31"/>
        <path class="cls-6" d="M622.95,482.64l2.01-.52c-.35,0-1.01.17-2.01.52ZM622.95,482.64l2.01-.52c-.35,0-1.01.17-2.01.52Z"/>
        <path class="cls-3" d="M773.36,153.55c-.22-.22-.39-.39-.61-.66-1.62,1.53-3.15,3.06-4.68,4.64-.22.22-.39.39-.61.61-1.97,2.06-3.89,4.16-5.77,6.3-16.32,18.51-28.79,40.47-36.36,64.49-4.11,12.56-6.78,25.68-8.01,39.24-.44,5.16-.61,10.41-.61,15.75v107.58c0,9.36-1.62,18.33-4.64,26.64-1.23,3.5-2.71,6.87-4.46,10.11-13.21,25.16-39.64,42.35-70.05,42.35-43.58,0-79.15-35.44-79.15-79.1,0-39.92-5.62-84.82,3.7-123.78,6.38-26.64,22.51-48.62,48.54-58.22,8.4-3.06,17.46-4.73,26.91-4.73,30.1,0,56.31,16.89,69.65,41.65,1.44-7.35,3.33-14.53,5.6-21.44,8.09-25.81,21.26-49.09,38.98-69.21,2.01-2.27,4.07-4.55,6.26-6.83.18-.17.39-.39.57-.57-32.07-28.83-74.55-46.38-121.06-46.38-40.47,0-77.79,13.17-108.02,35.66l-11.99,9.8c-.13.09-.22.17-.31.31-3.72,3.28-7.31,6.78-10.81,10.37-19.12,19.73-33.69,43.97-42.13,70.79-4.11,12.56-6.78,25.68-8.01,39.24-.44,5.16-.61,10.41-.61,15.75v107.58c0,2.76.09,5.56.17,8.23,0,.7.13,1.44.13,2.14.18,4.64.61,9.23,1.23,13.78l2.41,10.68,4.55,19.99c1.4,4.59,3.06,9.1,4.86,13.52,16.76,41.3,48.3,75.12,88.07,94.63,2.06,1.14,4.11,2.06,6.17,2.98l9.8,3.54,15.79,5.69c15.49,4.42,31.85,6.69,48.69,6.69,46.51,0,88.9-17.54,121.06-46.29,1.62-1.44,3.24-2.93,4.81-4.46,1.58-1.49,3.15-3.06,4.68-4.64.22-.22.44-.48.66-.7,31.46-32.68,50.66-77,50.66-125.78v-99.84l5.38-28.66c-4.51-40.99-22.36-79.23-51.45-109.46Z"/>
        <path class="cls-2" d="M1039.5,169.17l-76.26,69.21c-14.35-20.3-37.98-33.6-64.66-33.6-9.45,0-18.51,1.66-26.91,4.73-3.76,1.4-7.39,3.06-10.89,4.99h-.04c-2.93,1.62-5.82,3.41-8.53,5.38-4.33,3.15-8.36,6.74-11.99,10.72l-11.11,16.45-1.75,2.54-2.54,13.43-5.38,28.66v99.84c0,48.78-19.21,93.1-50.66,125.78-.22.22-.44.48-.66.7-1.23-1.18-2.36-2.41-3.5-3.63-14.61-15.84-26.38-34.26-34.56-54.51-1.79-4.42-3.46-8.93-4.86-13.52l-4.55-19.99-2.41-10.68c-.61-4.55-1.05-9.14-1.23-13.78,0-.7-.13-1.44-.13-2.14-.09-2.67-.18-5.47-.18-8.23v-107.58c0-5.34.18-10.59.61-15.75,1.23-13.56,3.89-26.69,8.01-39.24,7.57-24.02,20.04-45.98,36.36-64.49,1.88-2.14,3.81-4.24,5.77-6.3.22-.22.39-.39.61-.61,1.53-1.57,3.06-3.11,4.68-4.64,1.57-1.53,3.19-3.02,4.81-4.46.22-.22.48-.44.7-.66.09-.13.18-.22.31-.31l11.99-9.8c8.75-6.48,18.07-12.21,27.87-17.02,24.15-11.99,51.36-18.64,80.15-18.64,51.58,0,98.22,21.61,131.21,56.22,1.36,1.4,2.71,2.84,4.07,4.33,1.92,2.14,3.81,4.38,5.64,6.61Z"/>
        <path class="cls-3" d="M1040.72,504.82c-3.41,4.33-7.09,8.49-10.94,12.47-10.72,11.2-22.84,21-36.09,29.18-27.65,17.06-60.25,26.91-95.11,26.91-9.62,0-19.08-.74-28.31-2.23-6.96-1.05-13.74-2.58-20.39-4.46l-15.79-5.69-9.8-3.54c-2.06-.92-4.11-1.84-6.17-2.98-14.79-7.26-28.44-16.49-40.56-27.39.13-.13.39-.39.61-.61l.04-.09c26.21-27.21,43.62-60.9,50.75-97.3,13.34,24.63,39.42,41.39,69.3,41.52h.31c22.18,0,42.26-9.14,56.66-23.89l85.49,58.1Z"/>
        <path class="cls-1" d="M877.31,494.06l2.01-.52c-.35,0-1.01.17-2.01.52ZM877.31,494.06l2.01-.52c-.35,0-1.01.17-2.01.52ZM716.7,391.51v-107.58c0-5.34.18-10.59.61-15.75,1.23-13.56,3.89-26.69,8.01-39.24,7.57-24.02,20.04-45.98,36.36-64.49,1.88-2.14,3.81-4.24,5.78-6.3.22-.22.39-.39.61-.61,3.28-3.37,6.69-6.65,10.19-9.76.09-.13.18-.22.31-.31l11.99-9.8c8.75-6.48,18.07-12.21,27.87-17.02,24.15-11.99,51.36-18.64,80.15-18.64,51.58,0,98.22,21.61,131.21,56.22,1.36,1.4,2.71,2.84,4.07,4.33,1.93,2.14,3.81,4.38,5.64,6.61l-76.26,69.21c-14.35-20.3-37.98-33.6-64.66-33.6-9.45,0-18.51,1.66-26.91,4.73-3.76,1.4-7.39,3.06-10.89,4.99h-.04c-2.93,1.62-5.82,3.41-8.53,5.38-4.33,3.15-8.36,6.74-11.99,10.72l-12.86,18.99-7.92,42.09v99.84c0,43.58,35.39,78.93,78.84,79.1h.31c22.18,0,42.26-9.14,56.66-23.89l85.49,58.1c-3.41,4.33-7.09,8.49-10.94,12.47-10.72,11.2-22.84,21-36.09,29.18-27.65,17.06-60.24,26.91-95.11,26.91-9.63,0-19.08-.74-28.31-2.23-6.96-1.05-13.74-2.58-20.39-4.46l-15.79-5.69-9.8-3.54c-2.06-.92-4.11-1.84-6.17-2.98-18.77-9.19-35.7-21.61-50.01-36.49-1.23-1.18-2.36-2.41-3.5-3.63-14.61-15.84-26.38-34.26-34.56-54.51-1.79-4.42-3.46-8.93-4.86-13.52l-4.55-19.99-2.41-10.68c-.61-4.55-1.05-9.14-1.23-13.78,0-.7-.13-1.44-.13-2.14-.09-2.67-.18-5.47-.18-8.23"/>
        <path class="cls-3" d="M624.96,482.12l-2.01.52c1.01-.35,1.66-.52,2.01-.52Z"/>
      </g>
    </g>
  </g>
</svg>