<svg data-v-423bf9ae="" xmlns="http://www.w3.org/2000/svg" viewBox="0 0 826 90" class="iconLeft"><!----><!----><!----><g data-v-423bf9ae="" id="0b49809f-cf23-4da5-ab58-0eb9d710d5fe" fill="black" transform="matrix(5.947955615262949,0,0,5.947955615262949,169.551217252291,11.118957689622881)"><path d="M9.38 10.37L6.41 7.03C8.27 6.65 8.89 5.29 8.89 3.95C8.89 2.25 7.67 0.71 5.36 0.70C3.81 0.70 2.25 0.69 0.70 0.69L0.70 10.50L2.55 10.50L2.55 7.22L4.33 7.22L7.18 10.50L9.38 10.50ZM5.36 2.42C6.52 2.42 7.04 3.21 7.04 3.99C7.04 4.77 6.54 5.56 5.36 5.56L2.55 5.56L2.55 2.42ZM16.86 7.66C17.12 4.82 15.68 3.39 13.37 3.39C11.13 3.39 9.70 4.90 9.70 7C9.70 9.21 11.12 10.68 13.50 10.68C14.55 10.68 15.74 10.32 16.46 9.56L15.37 8.48C14.98 8.89 14.15 9.13 13.52 9.13C12.32 9.13 11.58 8.51 11.47 7.66ZM11.49 6.24C11.75 5.35 12.50 4.90 13.43 4.90C14.41 4.90 15.11 5.35 15.22 6.24ZM21.52 5.03C22.60 5.03 23.52 5.84 23.52 7.04C23.52 8.29 22.60 9.07 21.52 9.07C20.43 9.07 19.56 8.25 19.56 7.04C19.56 5.80 20.43 5.03 21.52 5.03ZM23.63 0.71L23.63 4.54C23.23 3.82 22.09 3.43 21.36 3.43C19.35 3.43 17.85 4.66 17.85 7.04C17.85 9.31 19.38 10.65 21.41 10.65C22.25 10.65 23.10 10.37 23.63 9.55L23.74 10.50L25.34 10.50L25.34 0.71ZM28.80 2.45L31.57 2.45C33.92 2.45 33.94 5.92 31.57 5.92L28.80 5.92ZM31.57 0.69C30.03 0.69 28.49 0.70 26.95 0.70L26.95 10.50L28.80 10.50L28.80 7.62L31.57 7.62C36.37 7.62 36.36 0.69 31.57 0.69ZM38.00 3.57L38.00 10.50L36.29 10.50L36.29 3.57ZM36.13 1.65C36.13 2.98 38.15 2.98 38.15 1.65C38.15 0.32 36.13 0.32 36.13 1.65ZM46.33 10.50L46.33 6.87C46.33 4.70 45.02 3.49 43.40 3.49C42.53 3.49 41.83 3.84 41.13 4.52L41.02 3.58L39.49 3.58L39.49 10.50L41.19 10.50L41.19 6.97C41.19 5.92 41.90 5.04 42.95 5.04C44.04 5.04 44.62 5.84 44.62 6.89L44.62 10.50ZM60.14 0.70L58.07 0.70L55.10 8.33L52.15 0.70L50.08 0.70L54.15 10.54L56.07 10.54ZM66.68 7.66C66.95 4.82 65.51 3.39 63.20 3.39C60.96 3.39 59.53 4.90 59.53 7C59.53 9.21 60.94 10.68 63.32 10.68C64.37 10.68 65.56 10.32 66.29 9.56L65.20 8.48C64.81 8.89 63.98 9.13 63.35 9.13C62.15 9.13 61.40 8.51 61.29 7.66ZM61.32 6.24C61.57 5.35 62.33 4.90 63.25 4.90C64.23 4.90 64.93 5.35 65.04 6.24ZM74.79 10.50L74.79 6.87C74.79 4.70 73.49 3.49 71.86 3.49C70.99 3.49 70.29 3.84 69.59 4.52L69.48 3.58L67.96 3.58L67.96 10.50L69.65 10.50L69.65 6.97C69.65 5.92 70.36 5.04 71.41 5.04C72.51 5.04 73.08 5.84 73.08 6.89L73.08 10.50ZM76.96 1.83L76.96 3.61L75.67 3.61L75.67 5.08L76.96 5.08L76.96 8.06C76.96 9.79 77.94 10.64 79.44 10.58C79.95 10.57 80.36 10.49 80.85 10.29L80.37 8.83C80.12 8.96 79.81 9.04 79.55 9.04C79.02 9.04 78.65 8.72 78.65 8.06L78.65 5.08L80.57 5.08L80.57 3.61L78.67 3.61L78.67 1.65ZM81.89 3.60L81.89 7.22C81.89 9.37 83.09 10.61 84.74 10.61C85.71 10.61 86.37 10.28 87.08 9.58L87.19 10.51L88.72 10.51L88.72 3.60L87.02 3.60L87.02 7.13C87.02 8.18 86.31 9.06 85.26 9.06C84.17 9.06 83.59 8.26 83.59 7.21L83.59 3.60ZM90.23 3.60L90.23 10.50L91.94 10.50L91.94 6.86C91.94 5.59 92.76 5.11 93.66 5.11C94.22 5.11 94.54 5.26 94.89 5.56L95.66 4.07C95.28 3.70 94.60 3.42 93.88 3.42C93.18 3.42 92.47 3.54 91.94 4.40L91.81 3.60ZM103.15 7.66C103.42 4.82 101.98 3.39 99.67 3.39C97.43 3.39 96.00 4.90 96.00 7C96.00 9.21 97.41 10.68 99.79 10.68C100.84 10.68 102.03 10.32 102.76 9.56L101.67 8.48C101.28 8.89 100.45 9.13 99.82 9.13C98.62 9.13 97.87 8.51 97.76 7.66ZM97.79 6.24C98.04 5.35 98.80 4.90 99.72 4.90C100.70 4.90 101.40 5.35 101.51 6.24ZM109.93 4.31C109.13 3.61 108.32 3.40 107.24 3.40C105.98 3.40 104.33 3.96 104.33 5.56C104.33 7.13 105.88 7.60 107.18 7.70C108.16 7.76 108.56 7.95 108.56 8.43C108.56 8.93 107.95 9.27 107.31 9.25C106.54 9.24 105.42 8.83 104.93 8.29L104.09 9.51C105.10 10.56 106.19 10.74 107.28 10.74C109.26 10.74 110.25 9.69 110.25 8.47C110.25 6.64 108.60 6.34 107.30 6.26C106.41 6.20 106.01 5.95 106.01 5.50C106.01 5.07 106.46 4.82 107.27 4.82C107.93 4.82 108.49 4.97 108.98 5.43Z"></path></g><!----><g data-v-423bf9ae="" id="640555da-b301-4a70-a91e-1f6a9a6178e7" transform="matrix(4.803586662404586,0,0,4.803586662404586,0.14261340152661717,-31.22538662899096)" stroke="none" fill="black"><path d="M16 19.586l7.496-12.954H8.504zM7.496 12.414L0 25.368h14.992zM24.504 12.414l-7.496 12.954H32z"></path></g><!----></svg>